<?xml version="1.0" encoding="iso-8859-1"?>
<!-- Generator: Adobe Illustrator 18.1.1, SVG Export Plug-In . SVG Version: 6.00 Build 0)  -->
<svg version="1.1" id="Capa_1" xmlns="http://www.w3.org/2000/svg" xmlns:xlink="http://www.w3.org/1999/xlink" x="0px" y="0px"
	 viewBox="0 0 192.815 192.815" style="enable-background:new 0 0 192.815 192.815;" xml:space="preserve">
<g>
	<g>
		<path style="fill:#010002;" d="M36.082,37.121h52.556L62.581,63.185c-1.164,1.164-1.164,3.055,0,4.219
			c0.585,0.585,1.349,0.871,2.112,0.871c0.764,0,1.528-0.292,2.112-0.871L97.953,36.25c0,0,0,0,0.006-0.006l2.106-2.106
			l-2.106-2.106c0,0,0,0-0.006-0.006L66.806,0.873c-1.164-1.164-3.055-1.164-4.219,0s-1.164,3.055,0,4.219l26.057,26.063H36.088
			c-1.647,0-2.983,1.337-2.983,2.983C33.105,35.785,34.43,37.121,36.082,37.121z"/>
		<path style="fill:#010002;" d="M157.616,98.515l2.106-2.106l-2.106-2.106c0,0,0,0-0.006-0.006l-31.147-31.153
			c-1.164-1.164-3.055-1.164-4.219,0c-1.164,1.164-1.164,3.055,0,4.219l26.057,26.063H36.076c-1.647,0-2.983,1.337-2.983,2.983
			s1.337,2.983,2.983,2.983h112.225l-26.057,26.063c-1.164,1.164-1.164,3.055,0,4.219c0.585,0.585,1.349,0.871,2.112,0.871
			c0.764,0,1.528-0.292,2.112-0.871L157.616,98.515C157.61,98.52,157.616,98.52,157.616,98.515z"/>
		<path style="fill:#010002;" d="M97.947,156.572L97.947,156.572l-31.153-31.159c-1.164-1.164-3.055-1.164-4.219,0
			s-1.164,3.055,0,4.219l26.057,26.063H36.076c-1.647,0-2.983,1.337-2.983,2.983s1.337,2.983,2.983,2.983h52.556l-26.057,26.063
			c-1.164,1.164-1.164,3.055,0,4.219c0.585,0.585,1.349,0.871,2.112,0.871c0.764,0,1.528-0.292,2.112-0.871l31.147-31.153
			c0,0,0,0,0.006-0.006l2.106-2.106L97.947,156.572z"/>
	</g>
</g>
<g>
</g>
<g>
</g>
<g>
</g>
<g>
</g>
<g>
</g>
<g>
</g>
<g>
</g>
<g>
</g>
<g>
</g>
<g>
</g>
<g>
</g>
<g>
</g>
<g>
</g>
<g>
</g>
<g>
</g>
</svg>
