<?xml version="1.0" encoding="iso-8859-1"?>
<!-- Generator: Adobe Illustrator 21.0.0, SVG Export Plug-In . SVG Version: 6.00 Build 0)  -->
<svg xmlns="http://www.w3.org/2000/svg" xmlns:xlink="http://www.w3.org/1999/xlink" version="1.1" id="Capa_1" x="0px" y="0px" viewBox="0 0 512 512" style="enable-background:new 0 0 512 512;" xml:space="preserve" width="512" height="512">
<path style="fill:#66FF66" d="M458.785,377.049v-79.772H270.971v-37.83c64.3-7.77,114.295-62.767,114.295-129.25C385.266,58.406,326.971,0,255.317,0  s-129.95,58.406-129.95,130.197c0,66.954,50.706,122.257,115.662,129.407v37.673H53.214v79.772C22.797,383.906,0,411.17,0,443.685  C0,481.354,30.588,512,68.186,512s68.185-30.646,68.185-68.315c0-32.515-22.798-59.779-53.215-66.636v-49.773h157.873v50.26  c-29.368,7.609-51.123,34.381-51.123,66.149c0,37.669,30.588,68.315,68.185,68.315s68.185-30.646,68.185-68.315  c0-33.256-23.847-61.024-55.305-67.076v-49.332h157.872v49.773c-30.417,6.857-53.214,34.121-53.214,66.636  c0,37.669,30.588,68.315,68.185,68.315S512,481.354,512,443.685C512,411.17,489.202,383.906,458.785,377.049z M280.37,145.196  c-2.409,26.871-11.242,52.914-25.642,75.687c-14.4-22.773-23.233-48.816-25.642-75.687H280.37z M229.085,115.197  c2.409-26.871,11.242-52.914,25.642-75.687c14.4,22.773,23.233,48.816,25.642,75.687H229.085z M286.833,225.293  c13.347-24.666,21.438-52.03,23.574-80.097h43.796C348.551,182.766,322.001,213.564,286.833,225.293z M354.203,115.197h-43.796  c-2.136-28.066-10.227-55.43-23.574-80.096C322.001,46.831,348.55,77.628,354.203,115.197z M222.354,35.598  c-13.187,24.537-21.184,51.721-23.307,79.599H156.43C162.005,78.145,187.907,47.682,222.354,35.598z M156.43,145.196h42.617  c2.122,27.879,10.12,55.064,23.307,79.6C187.907,212.713,162.005,182.249,156.43,145.196z M106.429,443.685  c0,21.127-17.156,38.316-38.243,38.316h0c-21.088,0-38.243-17.189-38.243-38.316c0-21.127,17.156-38.316,38.244-38.316  S106.429,422.558,106.429,443.685z M296.334,443.685c0,21.127-17.156,38.316-38.243,38.316s-38.243-17.189-38.243-38.316  c0-21.127,17.156-38.316,38.243-38.316S296.334,422.558,296.334,443.685z M443.814,482.001c-21.088,0-38.243-17.189-38.243-38.316  c0-21.127,17.156-38.316,38.243-38.316s38.244,17.189,38.244,38.316C482.058,464.812,464.902,482.001,443.814,482.001z"/>















</svg>
